<svg width="339" height="218" viewBox="0 0 339 218" fill="none" xmlns="http://www.w3.org/2000/svg">
<path d="M307.504 201.246C308.342 201.205 309.605 200.967 310.433 200.812C311.654 200.584 312.834 200.212 313.973 199.716C317.036 198.361 320.804 195.103 322.264 190.605C322.74 189.157 322.988 187.637 323.019 186.117C323.019 185.786 323.019 185.465 323.019 185.134V167.812C323.019 167.45 323.029 166.778 323.019 166.416C323.019 166.416 322.843 166.519 322.729 166.592C322.512 166.726 322.284 166.85 322.056 166.964C320.111 167.957 318.061 168.732 315.95 169.301C314.056 169.829 312.11 170.17 310.143 170.325C308.984 170.428 307.814 170.459 306.645 170.439C301.614 170.304 296.832 169.187 292.382 166.788C286.979 163.851 281.4 158.432 278.543 151.824C277.498 149.425 276.783 146.891 276.4 144.306C276.142 142.475 276.007 140.624 276.018 138.773L275.81 116.932L244.842 117.2V170.418H228.974V74.8621C228.974 73.3729 229.047 71.8837 229.213 70.4049C229.854 64.8308 231.852 59.7944 235.34 55.3682C237.379 52.7518 239.811 50.4663 242.544 48.5842C246.001 46.2056 249.934 44.582 254.074 43.8374C255.731 43.5375 257.397 43.4031 259.074 43.2893C259.332 43.2686 260.254 43.279 260.512 43.279L260.575 58.9568C260.047 58.9774 259.188 59.0498 258.67 59.0912C258.235 59.1429 257.801 59.1946 257.376 59.2773C254.851 59.7324 252.491 60.8389 250.535 62.5039C248.661 64.0655 247.16 65.9063 246.156 68.1401C245.432 69.7327 245.007 71.439 244.904 73.1867C244.873 73.8072 244.863 74.4174 244.863 75.0379L244.956 103.477H291.905L291.926 139.931C292.03 143.354 293.189 146.384 295.394 149.011C297.184 151.141 299.337 152.765 301.977 153.727C303.374 154.244 304.854 154.544 306.355 154.606C307.669 154.658 308.973 154.637 310.278 154.409C312.772 153.985 315.111 152.93 317.078 151.348C318.248 150.417 319.293 149.342 320.173 148.132C322.025 145.629 322.936 142.796 323.029 139.704C323.05 139.156 323.029 138.618 323.029 138.07V103.643L338.576 103.57V181.939C338.555 183.138 338.555 191.587 337.955 194.607C336.941 198.454 335.057 201.556 332.604 204.69C330.658 207.193 328.35 209.395 325.762 211.236C321.767 214.07 317.326 215.797 312.472 216.479C311.313 216.645 310.153 216.707 308.984 216.8C308.59 216.831 307.897 216.8 307.504 216.8L307.483 201.246H307.504Z" fill="#606060"/>
<path d="M166.953 107.304C166.953 108.173 166.88 109.041 166.818 109.91C166.57 113.178 165.783 116.373 164.51 119.383C161.643 126.167 156.985 131.41 150.703 135.236C146.604 137.729 142.153 139.259 137.402 139.921C136.108 140.118 134.794 140.211 133.49 140.221H119.237V74.3867H132.931C137.361 74.3971 141.615 75.2658 145.714 76.8997C149.481 78.3889 152.959 80.5399 155.961 83.2598C161.012 87.8101 164.427 93.3738 166.063 99.9717C166.508 101.73 166.777 103.529 166.86 105.339C166.88 106.001 166.963 106.652 166.953 107.304Z" fill="#CE1010"/>
<path d="M109.415 0C48.9788 0 0.000244141 48.8018 0.000244141 109C0.000244141 169.198 48.9891 218 109.415 218C169.842 218 218.83 169.198 218.83 109C218.83 48.8018 169.842 0 109.415 0ZM68.9863 170.543H38.0487V72.8046C38.0487 56.9716 50.9247 44.1378 66.823 44.1378H68.9863V170.543ZM197.322 113.426C197.105 115.526 196.794 117.604 196.38 119.672C195.707 122.982 194.766 126.229 193.555 129.383C191.122 135.743 187.665 141.659 183.328 146.902C174.468 157.616 162.41 165.227 148.913 168.619C146.863 169.146 144.793 169.56 142.703 169.86C141.44 170.046 140.177 170.191 138.904 170.325C137.776 170.439 136.647 170.45 135.53 170.543C133.449 170.698 131.369 170.656 129.299 170.667H88.5487L88.6729 70.0227C88.911 67.3856 89.5217 64.7898 90.505 62.3182C92.0783 58.2953 94.5417 54.6758 97.7193 51.7388C100.887 48.7915 104.685 46.5887 108.825 45.296C110.699 44.7169 112.634 44.3239 114.601 44.1378C115.615 44.0447 116.63 43.993 117.654 43.993C122.571 43.9723 127.498 43.962 132.414 43.993C134.464 43.993 136.503 44.0964 138.531 44.2722C152.401 45.4718 165.525 51.0459 176 60.1879C181.362 64.8519 185.906 70.3846 189.435 76.5482C192.551 81.9775 194.817 87.8515 196.163 93.953C196.753 96.5798 197.167 99.2376 197.395 101.906C197.571 104.077 197.715 106.259 197.633 108.431C197.56 110.096 197.488 111.772 197.322 113.426Z" fill="#CE1010"/>
<path d="M197.396 101.906C197.169 99.2378 196.755 96.58 196.165 93.9533C194.819 87.8518 192.552 81.9777 189.437 76.5484C185.907 70.3849 181.364 64.8521 176.002 60.1881C165.527 51.0462 152.403 45.4721 138.533 44.2724C136.504 44.0966 134.465 44.0036 132.416 43.9932C127.5 43.9622 122.573 43.9725 117.656 43.9932C116.632 43.9932 115.617 44.0449 114.603 44.138C112.636 44.3241 110.701 44.7171 108.827 45.2962C104.687 46.5889 100.888 48.7917 97.7212 51.739C94.5436 54.676 92.0802 58.2956 90.5069 62.3185C89.5236 64.7901 88.9129 67.3858 88.6749 70.0229L88.5507 170.667H129.301C131.371 170.667 133.451 170.698 135.532 170.543C136.649 170.45 137.778 170.439 138.906 170.326C140.179 170.191 141.442 170.046 142.704 169.86C144.795 169.56 146.865 169.147 148.915 168.619C162.412 165.227 174.47 157.616 183.33 146.902C187.667 141.659 191.124 135.744 193.556 129.383C194.767 126.229 195.709 122.982 196.382 119.673C196.796 117.604 197.107 115.526 197.324 113.426C197.49 111.772 197.562 110.096 197.635 108.431C197.717 106.26 197.572 104.078 197.396 101.906ZM166.821 109.91C166.573 113.178 165.786 116.374 164.513 119.383C161.646 126.167 156.988 131.41 150.705 135.237C146.607 137.729 142.156 139.26 137.405 139.922C136.111 140.118 134.797 140.211 133.493 140.221H119.24V74.3871H132.934C137.364 74.3974 141.618 75.2661 145.716 76.9C149.484 78.3892 152.962 80.5403 155.963 83.2601C161.014 87.8104 164.43 93.3741 166.066 99.9721C166.511 101.73 166.78 103.53 166.863 105.339C166.883 106.001 166.966 106.653 166.956 107.304C166.956 108.173 166.883 109.042 166.821 109.91Z" fill="white"/>
<path d="M68.9852 44.1377V170.543H38.0476V72.8045C38.0476 56.9716 50.9236 44.1377 66.822 44.1377H68.9852Z" fill="white"/>
</svg>
